HIERARCHY
ROOT Hips
{
	OFFSET 0.00000 0.00000 0.00000
	CHANNELS 6 Xposition Yposition Zposition Zrotation Yrotation Xrotation 
	JOINT LHipJoint
	{
		OFFSET 0 0 0
		CHANNELS 3 Zrotation Yrotation Xrotation
		JOINT LeftHip
		{
			OFFSET 1.62964 -1.40469 0.78906
			CHANNELS 3 Zrotation Yrotation Xrotation
			JOINT LeftKnee
			{
				OFFSET 2.29640 -6.30932 0.00000
				CHANNELS 3 Zrotation Yrotation Xrotation
				JOINT LeftAnkle
				{
					OFFSET 2.29451 -6.30412 0.00000
					CHANNELS 3 Zrotation Yrotation Xrotation
					JOINT LeftToe
					{
						OFFSET 0.03611 -0.09921 1.56387
						CHANNELS 3 Zrotation Yrotation Xrotation
						End Site
						{
							OFFSET 0.00000 -0.00000 0.80291
						}
					}
				}
			}
		}
	}
	JOINT RHipJoint
	{
		OFFSET 0 0 0
		CHANNELS 3 Zrotation Yrotation Xrotation
		JOINT RightHip
		{
			OFFSET -1.73712 -1.40469 0.78906
			CHANNELS 3 Zrotation Yrotation Xrotation
			JOINT RightKnee
			{
				OFFSET -2.28137 -6.26801 0.00000
				CHANNELS 3 Zrotation Yrotation Xrotation
				JOINT RightAnkle
				{
					OFFSET -2.28681 -6.28298 0.00000
					CHANNELS 3 Zrotation Yrotation Xrotation
					JOINT RightToe
					{
						OFFSET -0.15927 -0.43759 1.61103
						CHANNELS 3 Zrotation Yrotation Xrotation
						End Site
						{
							OFFSET -0.00000 -0.00000 0.84630
						}
					}
				}
			}
		}
	}
	JOINT lowerback
	{
		OFFSET 0 0 0
		CHANNELS 3 Zrotation Yrotation Xrotation
		JOINT Chest
		{
			OFFSET -0.04227 2.04338 -0.00225
			CHANNELS 3 Zrotation Yrotation Xrotation
			JOINT Chest2
			{
				OFFSET -0.02148 2.04482 -0.04273
				CHANNELS 3 Zrotation Yrotation Xrotation
				JOINT lowerneck
				{
					OFFSET 0 0 0
					CHANNELS 3 Zrotation Yrotation Xrotation
					JOINT Neck
					{
						OFFSET 0.09180 1.44629 0.19359
						CHANNELS 3 Zrotation Yrotation Xrotation
						JOINT Head
						{
							OFFSET 0.00887 1.40645 0.14750
							CHANNELS 3 Zrotation Yrotation Xrotation
							End Site
							{
								OFFSET -0.00669 1.50671 0.03707
							}
						}
					}
				}
				JOINT LeftCollar
				{
					OFFSET 0 0 0
					CHANNELS 3 Zrotation Yrotation Xrotation
					JOINT LeftShoulder
					{
						OFFSET 2.17674 1.86763 -0.06520
CHANNELS 3 Zrotation Xrotation Yrotation
						JOINT LeftElbow
						{
OFFSET 0 -4.657760 0.000000
CHANNELS 3 Zrotation Xrotation Yrotation
							JOINT LeftWrist
							{
OFFSET 0 -3.555390 0.000000
CHANNELS 3 Zrotation Xrotation Yrotation
								JOINT lhand
								{
									OFFSET 0 0 0
CHANNELS 3 Zrotation Xrotation Yrotation
									JOINT LFingers
									{
OFFSET 0 -0.707260 0.000000
CHANNELS 3 Zrotation Xrotation Yrotation
										End Site
										{
OFFSET 0 -0.570220 0.000000
										}
									}
								}
								JOINT LThumb
								{
OFFSET 0 0.000000 0.000000
CHANNELS 3 Zrotation Xrotation Yrotation
									End Site
									{
OFFSET 0 -0.578920 0.578920
									}
								}
							}
						}
					}
				}
				JOINT RightCollar
				{
					OFFSET 0 0 0
					CHANNELS 3 Zrotation Yrotation Xrotation
					JOINT RightShoulder
					{
						OFFSET -2.80694 1.55459 -0.32496
CHANNELS 3 Zrotation Xrotation Yrotation
						JOINT RightElbow
						{
OFFSET 0 -4.719250 -0.000000
CHANNELS 3 Zrotation Xrotation Yrotation
							JOINT RightWrist
							{
OFFSET 0 -3.569900 0.000000
CHANNELS 3 Zrotation Xrotation Yrotation
								JOINT rhand
								{
									OFFSET 0 0 0
CHANNELS 3 Zrotation Xrotation Yrotation
									JOINT RFingers
									{
OFFSET 0 -0.507760 0.000000
CHANNELS 3 Zrotation Xrotation Yrotation
										End Site
										{
OFFSET 0 -0.409370 0.000000
										}
									}
								}
								JOINT RThumb
								{
OFFSET 0 0.000000 0.000000
CHANNELS 3 Zrotation Xrotation Yrotation
									End Site
									{
OFFSET 0 -0.415620 0.415620
									}
								}
							}
						}
					}
				}
			}
		}
	}
}
MOTION
Frames: 9
Frame Time: 0.008333333333333333
16.414700 16.364000 21.597200 178.553000 -0.524500 -154.737000 0.000000 0.000000 0.000000 -20.809500 -15.927800 -20.402600 0.193500 2.832700 7.813400 0.133700 -2.575100 -6.495600 6.951900 -15.291300 -48.692300 0.000000 0.000000 0.000000 18.046300 14.053900 -20.202200 -0.145700 -2.459800 6.778200 -0.835900 4.064600 -16.384800 -0.503900 4.550600 -12.631200 -7.548600 -1.428300 -30.849900 0.066000 -0.046100 -1.683700 4.059700 -0.822900 14.224600 -0.552900 -2.504300 -5.307500 3.584200 -4.267200 13.096200 0.934300 -2.084600 4.892100 0.000000 0.000000 0.000000 4.442900 -2.876400 -28.354700 11.834900 -19.556500 2.046700 23.817000 -3.907000 11.693400 0.000000 0.000000 0.000000 -7.125000 0.000000 0.000000 -2.339000 17.238600 -1.542100 0.000000 0.000000 0.000000 0.998300 2.672900 9.101800 -18.427800 -28.701400 -4.752900 -21.923900 21.146500 60.045300 0.000000 0.000000 0.000000 7.125000 0.000000 -0.000000 -169.261400 2.275200 10.491900
16.416235 16.360658 21.599006 178.526808 -0.400675 -154.653908 0.000000 0.000000 0.000000 -20.830815 -16.006105 -20.436017 0.189165 2.801089 7.725431 0.132887 -2.400607 -6.472659 6.978995 -15.314150 -48.794900 0.000000 0.000000 0.000000 17.981181 14.033037 -20.375157 -0.147597 -2.475515 6.821823 -0.836171 4.191044 -16.375136 -0.518260 4.613822 -12.810389 -7.557361 -1.388109 -31.001723 0.032492 0.026244 -1.652902 4.055094 -0.795715 14.318078 -0.661371 -2.518841 -5.299010 3.786872 -4.282464 12.894883 1.015315 -2.083336 4.835652 0.000000 0.000000 0.000000 4.512354 -3.081691 -28.617975 11.965499 -19.752850 2.090684 23.398741 -4.132341 11.361123 0.000000 0.000000 0.000000 -7.125000 0.000000 0.000000 -2.615913 17.638254 -1.701781 0.000000 0.000000 0.000000 0.963347 2.575628 9.124921 -18.407569 -28.675931 -4.743236 -20.827449 19.147780 55.559787 0.000000 0.000000 0.000000 7.125000 0.000000 0.000000 -25.543892 -3.845687 -153.009770
16.418255 16.363525 21.591540 178.365957 -0.812585 -154.927220 0.000000 0.000000 0.000000 -21.013560 -16.114970 -20.042314 0.186926 2.784718 7.679956 0.124737 -2.589856 -6.278935 6.930133 -15.272735 -48.609475 0.000000 0.000000 0.000000 17.969120 13.771077 -19.817648 -0.132157 -2.341895 6.451469 -0.845231 3.820700 -16.506179 -0.539797 4.707121 -13.075132 -7.641837 -1.543537 -30.776823 0.004790 -0.131946 -1.562757 4.012106 -0.862871 14.342211 -0.679451 -2.528463 -5.318984 3.883913 -4.295792 12.793391 1.047868 -2.083603 4.810651 0.000000 0.000000 0.000000 4.575115 -3.168449 -28.735704 12.089082 -19.938072 2.132653 23.209081 -4.293901 11.438227 0.000000 0.000000 0.000000 -7.125000 0.000000 0.000000 -2.752037 17.573131 -1.794777 0.000000 0.000000 0.000000 0.978791 2.560926 9.222307 -18.486357 -28.775364 -4.781066 -18.204428 18.309712 66.157823 0.000000 0.000000 0.000000 7.125000 0.000000 0.000000 -135.877611 7.325149 -23.668379
16.418771 16.358056 21.593886 178.598326 -0.515172 -154.711903 0.000000 0.000000 0.000000 -20.711508 -16.122143 -20.287680 0.183236 2.757264 7.603754 0.125922 -2.248005 -6.306293 6.928201 -15.271140 -48.602246 0.000000 0.000000 0.000000 18.157057 13.793203 -20.296011 -0.142874 -2.434842 6.708992 -0.839170 4.336910 -16.397842 -0.559642 4.791473 -13.314743 -7.395193 -1.362092 -31.031300 0.013403 0.015654 -1.620018 3.943294 -0.790301 14.373839 -0.614518 -2.539624 -5.390836 3.786562 -4.292853 12.738795 1.006985 -2.081004 4.802552 0.000000 0.000000 0.000000 4.576835 -3.177331 -28.774867 12.171665 -20.061578 2.160828 23.378782 -4.204579 11.488146 0.000000 0.000000 0.000000 -7.125000 0.000000 0.000000 -2.635555 17.503139 -1.722608 0.000000 0.000000 0.000000 0.973041 2.554153 9.466753 -18.641247 -28.970326 -4.855888 -19.562667 18.637688 60.970148 0.000000 0.000000 0.000000 7.125000 0.000000 0.000000 -55.882982 1.405562 -116.862909
16.421741 16.358992 21.595232 178.647731 -0.473892 -154.667072 0.000000 0.000000 0.000000 -20.609312 -16.185720 -20.332295 0.182329 2.750241 7.584126 0.127323 -2.131652 -6.338261 6.934277 -15.276270 -48.625340 0.000000 0.000000 0.000000 18.199454 13.829638 -20.464562 -0.151251 -2.506419 6.907483 -0.847747 4.445694 -16.470390 -0.573459 4.849482 -13.479807 -7.365772 -1.334594 -31.060373 0.030390 0.033950 -1.650836 3.952324 -0.781639 14.348945 -0.590792 -2.541072 -5.430821 3.686180 -4.268872 12.652370 0.973931 -2.070281 4.779533 0.000000 0.000000 0.000000 4.566096 -3.175396 -28.870021 12.259645 -20.192866 2.191124 23.539821 -4.084102 11.288328 0.000000 0.000000 0.000000 -7.125000 0.000000 0.000000 -2.513619 17.703891 -1.631929 0.000000 0.000000 0.000000 0.930507 2.563319 9.724335 -18.795098 -29.163189 -4.930612 -20.456881 19.561173 62.540338 0.000000 0.000000 0.000000 7.125000 0.000000 0.000000 -106.832557 3.669288 -58.886718
16.425818 16.362438 21.594948 178.569279 -0.577715 -154.701683 0.000000 0.000000 0.000000 -20.659738 -16.274458 -20.275086 0.183632 2.759889 7.610969 0.128896 -2.156405 -6.377055 6.945511 -15.285763 -48.667877 0.000000 0.000000 0.000000 18.127262 13.874081 -20.449416 -0.156102 -2.545870 7.016923 -0.861645 4.302835 -16.620645 -0.578197 4.869339 -13.536265 -7.470933 -1.386996 -31.004348 0.026257 -0.001143 -1.658612 3.990791 -0.801982 14.317337 -0.598984 -2.532430 -5.410067 3.647080 -4.238073 12.549949 0.966338 -2.056153 4.743151 0.000000 0.000000 0.000000 4.592375 -3.197721 -29.030577 12.361778 -20.344943 2.226502 23.522567 -4.250122 11.294350 0.000000 0.000000 0.000000 -7.125000 0.000000 0.000000 -2.525918 17.698997 -1.640197 0.000000 0.000000 0.000000 0.899955 2.575036 9.787087 -18.885466 -29.276130 -4.974673 -20.134557 19.436779 62.662540 0.000000 0.000000 0.000000 7.125000 0.000000 0.000000 -168.098877 4.543271 11.129207
16.429325 16.363600 21.596073 178.499316 -0.602726 -154.658896 0.000000 0.000000 0.000000 -20.704919 -16.326837 -20.328696 0.185396 2.772983 7.647449 0.130468 -2.182916 -6.415987 6.924201 -15.267611 -48.586890 0.000000 0.000000 0.000000 18.044012 13.876778 -20.545843 -0.159074 -2.569894 7.083492 -0.865212 4.278399 -16.658411 -0.576089 4.860577 -13.511315 -7.555110 -1.405721 -31.057792 0.005701 0.008520 -1.657926 4.016435 -0.804458 14.338548 -0.622451 -2.536972 -5.373588 3.647096 -4.230297 12.445127 0.972109 -2.052497 4.705081 0.000000 0.000000 0.000000 4.625461 -3.292830 -29.150722 12.419980 -20.431499 2.246735 23.491676 -4.444264 11.484315 0.000000 0.000000 0.000000 -7.125000 0.000000 0.000000 -2.556318 17.496549 -1.671168 0.000000 0.000000 0.000000 0.881178 2.521290 9.678991 -18.861574 -29.246287 -4.963045 -19.867482 19.197152 60.813945 0.000000 0.000000 0.000000 7.125000 0.000000 0.000000 -168.447554 2.746016 11.214116
16.432041 16.363407 21.598344 178.410503 -0.585533 -154.590446 0.000000 0.000000 0.000000 -20.781596 -16.345866 -20.422985 0.186371 2.780227 7.667477 0.130152 -2.254148 -6.406859 6.833073 -15.189414 -48.239694 0.000000 0.000000 0.000000 17.949365 13.758986 -20.679819 -0.158900 -2.568436 7.079439 -0.860128 4.379054 -16.599127 -0.575330 4.857277 -13.502043 -7.643131 -1.426274 -31.149212 -0.014744 0.021401 -1.644579 4.045210 -0.807171 14.390764 -0.674426 -2.553406 -5.369164 3.643442 -4.232359 12.329984 0.980433 -2.053808 4.669946 0.000000 0.000000 0.000000 4.614608 -3.446209 -29.133078 12.405766 -20.410391 2.241819 23.588064 -4.316676 11.496013 0.000000 0.000000 0.000000 -7.125000 0.000000 0.000000 -2.489402 17.474728 -1.628687 0.000000 0.000000 0.000000 0.833113 2.392315 9.608253 -18.706448 -29.052003 -4.887629 -20.492386 19.614223 60.644733 0.000000 0.000000 0.000000 7.125000 0.000000 0.000000 -117.363686 2.054970 -47.138150
16.433713 16.362842 21.598686 178.293983 -0.533359 -154.540746 0.000000 0.000000 0.000000 -20.924369 -16.337998 -20.464577 0.185942 2.777315 7.659284 0.128842 -2.339768 -6.373159 6.732372 -15.102337 -47.854808 0.000000 0.000000 0.000000 17.834058 13.571722 -20.795266 -0.158765 -2.567196 7.076035 -0.855679 4.573299 -16.539599 -0.580141 4.877131 -13.558511 -7.751351 -1.449253 -31.216575 -0.037743 0.034370 -1.643445 4.082120 -0.810543 14.417531 -0.753066 -2.541983 -5.385842 3.636219 -4.189444 12.193178 0.994529 -2.033233 4.631075 0.000000 0.000000 0.000000 4.578073 -3.557127 -29.016876 12.379746 -20.371756 2.232731 23.670286 -4.050705 11.325753 0.000000 0.000000 0.000000 -7.125000 0.000000 0.000000 -2.423856 17.650942 -1.576152 0.000000 0.000000 0.000000 0.756509 2.288908 9.714459 -18.547815 -28.852846 -4.810697 -21.951017 19.993043 58.079560 0.000000 0.000000 0.000000 7.125000 0.000000 0.000000 -46.316726 -1.073353 -129.300865
